<svg width="48" height="46" viewBox="0 0 48 46" fill="none" xmlns="http://www.w3.org/2000/svg">
<g clip-path="url(#clip0_0_10)">
<rect x="0.5" y="0.5" width="47" height="45" rx="22.5" stroke="#584D62"/>
<path d="M20.9793 16.7C20.8993 16.7 20.8593 16.6667 20.8593 16.6C20.8593 16.5467 20.8993 16.52 20.9793 16.52L22.3693 16.49C23.1626 16.49 23.7726 16.4333 24.1993 16.32C24.6326 16.2067 24.9726 15.9733 25.2193 15.62C25.2726 15.5267 25.3226 15.48 25.3693 15.48C25.4426 15.48 25.4793 15.53 25.4793 15.63V29C25.4793 29.36 25.646 29.5733 25.9793 29.64L27.2293 29.84C27.3093 29.86 27.3493 29.8867 27.3493 29.92C27.3493 29.9733 27.3093 30 27.2293 30H20.8793C20.7926 30 20.7493 29.97 20.7493 29.91C20.7493 29.8767 20.796 29.85 20.8893 29.83L22.1093 29.64C22.276 29.6 22.4126 29.5333 22.5193 29.44C22.626 29.3467 22.6793 29.2033 22.6793 29.01V17.09C22.6793 16.8433 22.5793 16.72 22.3793 16.72L20.9793 16.7Z" fill="#24053E"/>
</g>
<defs>
<clipPath id="clip0_0_10">
<rect width="48" height="46" fill="white"/>
</clipPath>
</defs>
</svg>
