<svg width="48" height="46" viewBox="0 0 48 46" fill="none" xmlns="http://www.w3.org/2000/svg">
<g clip-path="url(#clip0_0_18)">
<rect x="0.5" y="0.5" width="47" height="45" rx="22.5" stroke="#584D62"/>
<path d="M19.0134 28.92C19.0134 27.9733 19.4167 27.28 20.2234 26.84L22.1234 25.61C23.3234 24.8167 24.2167 23.9333 24.8034 22.96C25.3967 21.98 25.6934 20.8267 25.6934 19.5C25.6934 18.2133 25.4934 17.3 25.0934 16.76C24.7 16.2133 24.24 15.94 23.7134 15.94C23.08 15.94 22.6 16.13 22.2734 16.51C21.9534 16.8833 21.7934 17.3967 21.7934 18.05V19.35C21.7934 19.8167 21.6667 20.1833 21.4134 20.45C21.1667 20.71 20.8667 20.84 20.5134 20.84C20.1267 20.84 19.8234 20.73 19.6034 20.51C19.3834 20.2833 19.2734 19.9633 19.2734 19.55C19.2734 18.9167 19.46 18.3133 19.8334 17.74C20.2134 17.1667 20.7734 16.7 21.5134 16.34C22.2534 15.98 23.17 15.8 24.2634 15.8C25.6367 15.8 26.6967 16.1333 27.4434 16.8C28.1967 17.4667 28.5734 18.3167 28.5734 19.35C28.5734 20.05 28.4 20.71 28.0534 21.33C27.7134 21.95 27.1634 22.5733 26.4034 23.2C25.6434 23.8267 24.6367 24.5067 23.3834 25.24L21.0034 26.54C21.3767 26.4467 21.79 26.4 22.2434 26.4C22.7834 26.4 23.3367 26.5033 23.9034 26.71C24.47 26.91 25.0267 27.11 25.5734 27.31C26.12 27.51 26.63 27.61 27.1034 27.61C27.61 27.61 28 27.5033 28.2734 27.29C28.5534 27.07 28.78 26.69 28.9534 26.15C28.9667 26.09 28.99 26.0667 29.0234 26.08C29.05 26.0867 29.0634 26.1133 29.0634 26.16C28.95 27.1933 28.76 28.0033 28.4934 28.59C28.2267 29.17 27.89 29.58 27.4834 29.82C27.0767 30.0533 26.6134 30.17 26.0934 30.17C25.64 30.17 25.24 30.09 24.8934 29.93C24.5467 29.77 24.2134 29.4867 23.8934 29.08C23.58 28.6733 23.24 28.1033 22.8734 27.37C22.6334 27.0567 22.44 26.84 22.2934 26.72C22.1534 26.6 22.0267 26.54 21.9134 26.54C21.74 26.54 21.6034 26.64 21.5034 26.84C21.4034 27.04 21.3434 27.4133 21.3234 27.96C21.2767 28.8333 21.13 29.4167 20.8834 29.71C20.6367 30.0033 20.3234 30.15 19.9434 30.15C19.6567 30.15 19.43 30.0367 19.2634 29.81C19.0967 29.5833 19.0134 29.2867 19.0134 28.92Z" fill="#24053E"/>
</g>
<defs>
<clipPath id="clip0_0_18">
<rect width="48" height="46" fill="white"/>
</clipPath>
</defs>
</svg>
