<svg width="48" height="46" viewBox="0 0 48 46" fill="none" xmlns="http://www.w3.org/2000/svg">
<g clip-path="url(#clip0_0_26)">
<rect x="0.5" y="0.5" width="47" height="45" rx="22.5" stroke="#584D62"/>
<path d="M28.6335 26.05C28.6335 26.8967 28.4268 27.63 28.0135 28.25C27.6068 28.87 27.0368 29.35 26.3035 29.69C25.5702 30.03 24.7202 30.2 23.7535 30.2C22.3402 30.2 21.2468 29.91 20.4735 29.33C19.7068 28.75 19.3235 28.0333 19.3235 27.18C19.3235 26.6933 19.4502 26.3 19.7035 26C19.9568 25.6933 20.2635 25.54 20.6235 25.54C20.9302 25.54 21.1935 25.66 21.4135 25.9C21.6335 26.1333 21.7435 26.4367 21.7435 26.81V28.04C21.7435 28.6267 21.9202 29.1133 22.2735 29.5C22.6268 29.88 23.1368 30.07 23.8035 30.07C24.4902 30.07 25.0368 29.7967 25.4435 29.25C25.8502 28.7033 26.0535 27.7967 26.0535 26.53C26.0535 25.2367 25.8035 24.27 25.3035 23.63C24.8035 22.99 24.1535 22.67 23.3535 22.67H22.7735C22.6802 22.67 22.6335 22.6367 22.6335 22.57C22.6335 22.5367 22.6802 22.4733 22.7735 22.38L26.6835 18.17H20.9535C20.7335 18.17 20.5902 18.2833 20.5235 18.51L20.0935 20.01C20.0802 20.07 20.0468 20.1 19.9935 20.1C19.9335 20.1 19.9102 20.06 19.9235 19.98L20.3735 16.31C20.4002 16.1033 20.4902 16 20.6435 16H28.8135C28.9068 16 28.9535 16.04 28.9535 16.12C28.9535 16.18 28.9102 16.2567 28.8235 16.35L22.9235 22.45H23.4135C25.0135 22.45 26.2835 22.74 27.2235 23.32C28.1635 23.9 28.6335 24.81 28.6335 26.05Z" fill="#24053E"/>
</g>
<defs>
<clipPath id="clip0_0_26">
<rect width="48" height="46" fill="white"/>
</clipPath>
</defs>
</svg>
