<svg width="97" height="25" viewBox="0 0 97 25" fill="none" xmlns="http://www.w3.org/2000/svg">
<path fill-rule="evenodd" clip-rule="evenodd" d="M67.2747 24.224V18.88L69.1947 16.768L73.6427 24.224H79.0827L72.7787 13.792L79.1147 6.752H73.1947L67.2747 13.056V0H62.4747V24.224H67.2747ZM43.5556 23.424C42.1476 24.2133 40.5796 24.608 38.8516 24.608C37.1236 24.608 35.5503 24.2133 34.1316 23.424C32.7129 22.6347 31.5823 21.552 30.7396 20.176C29.8969 18.8 29.4756 17.2373 29.4756 15.488C29.4756 13.7173 29.8969 12.1493 30.7396 10.784C31.5823 9.41867 32.7129 8.34133 34.1316 7.552C35.5503 6.76267 37.1236 6.368 38.8516 6.368C40.5796 6.368 42.1476 6.76267 43.5556 7.552C44.9636 8.34133 46.0889 9.41867 46.9316 10.784C47.7743 12.1493 48.1956 13.7173 48.1956 15.488C48.1956 17.2373 47.7743 18.8 46.9316 20.176C46.0889 21.552 44.9636 22.6347 43.5556 23.424ZM14.5921 13.024L10.5281 24.224H6.36805L0.352051 6.752H5.31205L8.70405 16.896L12.5121 6.752H16.6721L20.4481 16.896L23.8401 6.752H28.8321L22.784 24.224H18.6241L14.5921 13.024ZM38.8516 20.288C37.5503 20.288 36.4889 19.84 35.6676 18.944C34.8463 18.048 34.4356 16.896 34.4356 15.488C34.4356 14.1013 34.8463 12.9547 35.6676 12.048C36.4889 11.1413 37.5503 10.688 38.8516 10.688C40.1529 10.688 41.2089 11.1413 42.0196 12.048C42.8303 12.9547 43.2356 14.1013 43.2356 15.488C43.2356 16.896 42.8303 18.048 42.0196 18.944C41.2089 19.84 40.1529 20.288 38.8516 20.288ZM55.3672 14.816V24.224H50.5672V6.752H55.0472V9.376C55.4952 8.288 56.1298 7.54667 56.9512 7.152C57.7725 6.75733 58.7165 6.56 59.7832 6.56H60.8072V10.72H59.3032C58.1298 10.72 57.1805 11.0773 56.4552 11.792C55.7298 12.5067 55.3672 13.5147 55.3672 14.816ZM83.5983 0.384V3.904H81.6783V0.384H83.5983ZM83.5983 24.224V7.232H81.6783V24.224H83.5983ZM95.3138 24.384C95.0152 24.4053 94.7805 24.416 94.6098 24.416C93.1805 24.416 92.0872 24.016 91.3298 23.216C90.5725 22.416 90.1938 21.248 90.1938 19.712V9.056H86.9938V7.232H88.2098C88.8285 7.232 89.3138 7.04 89.6658 6.656C90.0178 6.272 90.1938 5.74933 90.1938 5.088V3.264H92.1138V7.232H95.8258V9.056H92.1138V19.712C92.1138 20.1813 92.1832 20.64 92.3218 21.088C92.4605 21.536 92.7325 21.8987 93.1378 22.176C93.5432 22.4533 94.1298 22.592 94.8978 22.592C95.0685 22.592 95.2765 22.5813 95.5218 22.56C95.7672 22.5387 95.9645 22.5173 96.1138 22.496V24.256C95.8792 24.32 95.6125 24.3627 95.3138 24.384Z" fill="#24053E"/>
</svg>
