<svg width="96" height="25" viewBox="0 0 96 25" fill="none" xmlns="http://www.w3.org/2000/svg">
<path fill-rule="evenodd" clip-rule="evenodd" d="M66.9227 24.224V18.88L68.8427 16.768L73.2907 24.224H78.7307L72.4267 13.792L78.7627 6.752H72.8427L66.9227 13.056V0H62.1227V24.224H66.9227ZM43.2036 23.424C41.7956 24.2133 40.2276 24.608 38.4996 24.608C36.7716 24.608 35.1982 24.2133 33.7796 23.424C32.3609 22.6347 31.2302 21.552 30.3876 20.176C29.5449 18.8 29.1236 17.2373 29.1236 15.488C29.1236 13.7173 29.5449 12.1493 30.3876 10.784C31.2302 9.41867 32.3609 8.34133 33.7796 7.552C35.1982 6.76267 36.7716 6.368 38.4996 6.368C40.2276 6.368 41.7956 6.76267 43.2036 7.552C44.6116 8.34133 45.7369 9.41867 46.5796 10.784C47.4222 12.1493 47.8436 13.7173 47.8436 15.488C47.8436 17.2373 47.4222 18.8 46.5796 20.176C45.7369 21.552 44.6116 22.6347 43.2036 23.424ZM14.24 13.024L10.176 24.224H6.016L0 6.752H4.96L8.352 16.896L12.16 6.752H16.32L20.096 16.896L23.488 6.752H28.48L22.432 24.224H18.272L14.24 13.024ZM38.4996 20.288C37.1982 20.288 36.1369 19.84 35.3156 18.944C34.4942 18.048 34.0836 16.896 34.0836 15.488C34.0836 14.1013 34.4942 12.9547 35.3156 12.048C36.1369 11.1413 37.1982 10.688 38.4996 10.688C39.8009 10.688 40.8569 11.1413 41.6676 12.048C42.4782 12.9547 42.8836 14.1013 42.8836 15.488C42.8836 16.896 42.4782 18.048 41.6676 18.944C40.8569 19.84 39.8009 20.288 38.4996 20.288ZM55.0151 14.816V24.224H50.2151V6.752H54.6951V9.376C55.1431 8.288 55.7778 7.54667 56.5991 7.152C57.4204 6.75733 58.3644 6.56 59.4311 6.56H60.4551V10.72H58.9511C57.7778 10.72 56.8284 11.0773 56.1031 11.792C55.3778 12.5067 55.0151 13.5147 55.0151 14.816ZM83.2462 0.384V3.904H81.3262V0.384H83.2462ZM83.2462 24.224V7.232H81.3262V24.224H83.2462ZM94.9618 24.384C94.6631 24.4053 94.4284 24.416 94.2578 24.416C92.8284 24.416 91.7351 24.016 90.9778 23.216C90.2204 22.416 89.8418 21.248 89.8418 19.712V9.056H86.6418V7.232H87.8578C88.4764 7.232 88.9618 7.04 89.3138 6.656C89.6658 6.272 89.8418 5.74933 89.8418 5.088V3.264H91.7618V7.232H95.4738V9.056H91.7618V19.712C91.7618 20.1813 91.8311 20.64 91.9698 21.088C92.1084 21.536 92.3804 21.8987 92.7858 22.176C93.1911 22.4533 93.7778 22.592 94.5458 22.592C94.7164 22.592 94.9244 22.5813 95.1698 22.56C95.4151 22.5387 95.6124 22.5173 95.7618 22.496V24.256C95.5271 24.32 95.2604 24.3627 94.9618 24.384Z" fill="white"/>
</svg>
