<svg width="113" height="317" viewBox="0 0 113 317" fill="none" xmlns="http://www.w3.org/2000/svg">
<path d="M-33.2378 171.883C-19.3951 145.849 -1.54795 125.133 16.0944 112.678C33.7629 100.205 51.0875 96.1011 63.9986 102.966C76.9097 109.831 83.1956 126.488 82.7346 148.111C82.2744 169.702 75.0803 196.082 61.2375 222.117C47.3948 248.151 29.5476 268.867 11.9053 281.322C-5.76317 293.795 -23.0878 297.899 -35.9989 291.034C-48.91 284.169 -55.1959 267.512 -54.7349 245.889C-54.2747 224.298 -47.0806 197.918 -33.2378 171.883Z" stroke="#44FFA1"/>
<path d="M-69.2378 152.883C-55.3951 126.849 -37.548 106.133 -19.9056 93.6781C-2.23714 81.2045 15.0875 77.1011 27.9986 83.9661C40.9097 90.831 47.1956 107.488 46.7346 129.111C46.2744 150.702 39.0803 177.082 25.2375 203.117C11.3948 229.151 -6.45235 249.867 -24.0947 262.322C-41.7632 274.795 -59.0878 278.899 -71.9989 272.034C-84.91 265.169 -91.1959 248.512 -90.7349 226.889C-90.2747 205.298 -83.0806 178.918 -69.2378 152.883Z" stroke="#44FFA1"/>
<path opacity="0.75" d="M-103.355 134.353C-89.5114 108.317 -71.7621 87.548 -54.2781 75.0079C-36.7658 62.4474 -19.6642 58.2331 -7.0013 64.9661C5.66164 71.6991 11.7309 88.2335 11.1105 109.776C10.4912 131.283 3.19808 157.612 -10.6453 183.647C-24.4886 209.683 -42.238 230.452 -59.7219 242.992C-77.2342 255.553 -94.3358 259.767 -106.999 253.034C-119.662 246.301 -125.731 229.766 -125.111 208.224C-124.491 186.717 -117.198 160.388 -103.355 134.353Z" stroke="#44FFA1"/>
<path opacity="0.5" d="M-140.238 113.883C-126.395 87.8488 -108.548 67.1331 -90.9056 54.6781C-73.2371 42.2045 -55.9125 38.1011 -43.0014 44.9661C-30.0903 51.831 -23.8044 68.4884 -24.2654 90.1113C-24.7256 111.702 -31.9197 138.082 -45.7625 164.117C-59.6052 190.151 -77.4524 210.867 -95.0947 223.322C-112.763 235.795 -130.088 239.899 -142.999 233.034C-155.91 226.169 -162.196 209.512 -161.735 187.889C-161.275 166.298 -154.081 139.918 -140.238 113.883Z" stroke="#44FFA1"/>
</svg>
