<svg width="79" height="181" viewBox="0 0 79 181" fill="none" xmlns="http://www.w3.org/2000/svg">
<path d="M77.976 103.127C90.7458 111.741 100.54 122.114 106.062 131.901C111.601 141.716 112.77 150.793 108.61 156.961C104.449 163.13 95.5956 165.446 84.4196 163.987C73.2768 162.533 59.9902 157.338 47.2203 148.725C34.4505 140.111 24.6563 129.738 19.1339 119.952C13.5951 110.136 12.4259 101.059 16.5866 94.8908C20.7473 88.7223 29.6007 86.4064 40.7767 87.8648C51.9195 89.3189 65.2061 94.5141 77.976 103.127Z" stroke="#44FFA1"/>
<path d="M89.976 85.1275C102.746 93.7408 112.54 104.114 118.062 113.901C123.601 123.716 124.77 132.793 120.61 138.961C116.449 145.13 107.596 147.446 96.4196 145.987C85.2768 144.533 71.9902 139.338 59.2203 130.725C46.4505 122.111 36.6563 111.738 31.1339 101.952C25.5951 92.1357 24.4259 83.0593 28.5866 76.8908C32.7473 70.7223 41.6007 68.4064 52.7767 69.8648C63.9195 71.3189 77.2061 76.5141 89.976 85.1275Z" stroke="#44FFA1"/>
<path opacity="0.75" d="M100.976 68.1275C113.746 76.7408 123.54 87.1138 129.062 96.9006C134.601 106.716 135.77 115.793 131.61 121.961C127.449 128.13 118.596 130.446 107.42 128.987C96.2768 127.533 82.9902 122.338 70.2203 113.725C57.4505 105.111 47.6563 94.7382 42.1339 84.9515C36.5951 75.1357 35.4259 66.0593 39.5866 59.8908C43.7473 53.7223 52.6007 51.4064 63.7767 52.8648C74.9195 54.3189 88.2061 59.5141 100.976 68.1275Z" stroke="#44FFA1"/>
<path opacity="0.5" d="M112.976 50.1275C125.746 58.7408 135.54 69.1138 141.062 78.9006C146.601 88.7164 147.77 97.7927 143.61 103.961C139.449 110.13 130.596 112.446 119.42 110.987C108.277 109.533 94.9902 104.338 82.2203 95.7246C69.4505 87.1112 59.6563 76.7382 54.1339 66.9515C48.5951 57.1357 47.4259 48.0593 51.5866 41.8908C55.7473 35.7223 64.6007 33.4064 75.7767 34.8648C86.9195 36.3189 100.206 41.5141 112.976 50.1275Z" stroke="#44FFA1"/>
<path opacity="0.25" d="M125.976 32.1275C138.746 40.7408 148.54 51.1138 154.062 60.9006C159.601 70.7164 160.77 79.7927 156.61 85.9612C152.449 92.1298 143.596 94.4457 132.42 92.9873C121.277 91.5331 107.99 86.3379 95.2203 77.7246C82.4505 69.1112 72.6563 58.7382 67.1339 48.9515C61.5951 39.1357 60.4259 30.0593 64.5866 23.8908C68.7473 17.7223 77.6007 15.4064 88.7767 16.8648C99.9195 18.3189 113.206 23.5141 125.976 32.1275Z" stroke="#44FFA1"/>
</svg>
